<?xml version="1.0" encoding="UTF-8"?><svg id="Capa_1" xmlns="http://www.w3.org/2000/svg" viewBox="0 0 531.49 110.03"><path d="M34.26,0c1.98,.27,3.98,.43,5.94,.84,17.71,3.72,29.97,13.81,34.58,31.54,6.18,23.75-7.26,46.72-31.39,52.94-3.94,1.01-7.94,1.5-12.01,1.5-8.44,0-16.88,0-25.32,0-.24,0-.48-.02-.79-.03v-17.29c.44,0,.84,0,1.25,0,8.03,0,16.05,.08,24.08-.02,11.22-.13,19.54-5.18,24.28-15.39,7.18-15.49-2.63-33.63-19.49-36.37-1.53-.25-3.1-.3-4.65-.31-8.06-.03-16.12-.01-24.18-.01-.41,0-.82,0-1.35,0V0h29.07Z"/><path d="M474.39,110.03c1.29-3.01,2.56-6.03,3.87-9.03,3.16-7.25,6.32-14.5,9.52-21.73,.3-.67,.26-1.18-.05-1.83-8.23-16.89-16.43-33.79-24.64-50.69-.16-.33-.3-.68-.5-1.11,.45-.02,.78-.05,1.11-.05,6.19,0,12.38,.02,18.57-.03,.88,0,1.26,.31,1.6,1.07,4.57,10.1,9.16,20.19,13.75,30.28,.17,.37,.35,.73,.59,1.26,.2-.44,.35-.74,.48-1.05,4.21-10.18,8.43-20.35,12.61-30.54,.32-.77,.69-1.01,1.51-1.01,5.85,.04,11.69,.02,17.54,.02,.38,0,.76-.03,1.13-.05v.21c-.16,.31-.32,.61-.46,.92-7.81,17.54-15.61,35.08-23.41,52.62-4.56,10.25-9.13,20.5-13.7,30.75h-19.52Z"/><path d="M0,41.31c.27-1.21,.48-2.43,.82-3.62,2.69-9.54,11.75-15.8,21.71-15.04,9.76,.75,17.79,8.5,18.96,18.29,1.31,10.96-6.43,21.34-17.15,22.99-11.44,1.76-21.86-5.48-23.96-16.65-.11-.61-.25-1.21-.38-1.82,0-1.38,0-2.77,0-4.15Zm20.57-5.24c-1.36,.3-2.77,.08-3.53,1.15-.9,1.27-2.05,2.37-2.24,4.17-.21,1.95,.96,3.41,2.84,2.86,.63-.19,1.08-.04,1.69,.15,.97,.3,.68,.82,.67,1.42,0,.23,.24,.48,.4,.69,.57,.78,.97,1.58,.5,2.58-.1,.21-.05,.55,.04,.79,.22,.61,.45,1.23,.78,1.79,.29,.49,.65,1.2,1.08,1.28,.9,.17,1.59-.43,2.12-1.2,.6-.87,.64-2.08,1.68-2.69,.18-.1,.25-.6,.18-.86-.37-1.43,.39-2.35,1.34-3.24,.66-.62,.91-1.39,.72-2.31h-1.14c.69-.75,1.49-1.43,2.04-2.28,.38-.59-.22-.96-.79-.97-.9-.01-.9-.66-1.22-1.24,.56,.29,.94,.61,1.37,.69,1.88,.38,2.97,1.54,3.5,3.33,.1,.33,.33,.62,.51,.95,.21-1.08,.41-2.1,.65-3.37,.99,1.18,1.72,2.06,2.45,2.93,.13-.09,.26-.17,.4-.26-.17-.42-.37-.84-.51-1.27-.09-.27-.25-.75-.14-.83,1.18-.92,.59-1.89,.17-2.87-.16-.37-.3-.76-.48-1.2,.24,.05,.42,.08,.53,.1,.89-1.38,.08-2.58-.58-3.72,.51-.15,.81-.23,1.2-.34-.85-1.08-1.4-2.23-2.89-2.47-.69-.11-1.5-.53-1.9-1.07-.75-1.01-1.57-.78-2.5-.55-.48,.12-.98,.15-1.51,.23-.07,.08-.19,.37-.36,.4-.66,.12-1.33,.19-1.99,.21-.33,0-.7-.06-.98-.22-1.19-.72-2.34-.78-3.04-.1-.44,.43-.93,.82-1.3,1.31-.15,.2-.15,.73,0,.9,.27,.27,.71,.37,1.15,.58,.31-.69,.66-1.46,1-2.23l.39,.06c-.36,.61-.99,1.33,.41,1.25-1.77,1.67-2.24,1.79-2.62,1.01-.73,.62-1.5,1.28-2.29,1.95,.44,.92,.4,.97-1.05,1.17-.04,.17-.13,.37-.12,.57,.02,.33,.11,.65,.17,.98,.38-.13,.79-.22,1.13-.42,.18-.1,.24-.41,.39-.59,.78-.92,1.27-.95,2.16-.16,.21,.19,.43,.35,.65,.53,.05-.05,.1-.1,.15-.15-.31-.42-.63-.83-.94-1.25,.09-.07,.18-.14,.27-.21,.57,.7,1.14,1.39,1.7,2.08,.11-.31,.21-.55,.3-.8,.11,.06,.31,.1,.32,.17,.16,1.13,1.11,.84,1.8,.94-.03,1.58-.31,1.67-2.4,.91-.43,.15-.83,.43-1.02,.32-.59-.32-1.61-.28-1.33-1.57Zm-13.27,2.77c1.1-1.84,2.14-3.58,4.22-4.45v-1.05c.16-.04,.25-.07,.35-.08,1.19-.14,1.17-.21,1.02-1.35-.07-.53-.51-.57-.64-.84-.48-.99-.7-.4-.98,.08-.34,.58-.68,1.17-1.09,1.88-.09-.42-.07-.68-.19-.84-.57-.77-.43-1.27,.47-1.76,.44-.24,.83-.58,1.26-.86,.25-.17,.53-.29,.8-.44-.11,.32-.22,.63-.34,.99,.89,1.19,.87-.77,1.61-.6-.43-.51-.88-1.04-1.42-1.14-.32-.06-.77,.56-1.23,.92,0,0-.13-.17-.28-.38-.5,.93-1.38,.99-2.26,.97-1.76-.05-3.39,1.07-3.83,2.68,.29-.17,.58-.35,1.08-.64-.11,.63-.09,1.03-.24,1.35-1.02,2.1-1.56,4.29-1.35,6.63,.03,.35,.08,.74,.26,1.04,.4,.64,.88,1.24,1.29,1.8,.04-.8,.1-1.74,.15-2.69-.22,.16-.46,.35-.75,.56-.32-1.64,.6-2.7,2.15-2.52-.02,.25-.04,.5-.06,.75Zm2.19,18.02c.15-.57,.26-.79,.25-1-.07-.79-.04-1.4,.75-1.98,.54-.39,.66-1.34,.99-2.02,.08-.17,.22-.42,.37-.45,.89-.19,.82-.87,.85-1.53,.01-.33,.02-.73,.19-.98,.67-.93,.35-1.7-.55-1.99-1.9-.61-2.44-2.44-3.66-3.66-.38-.37-.95-.67-1.46-.73-.3-.04-.84,.41-.96,.75-.72,1.97-.47,3.91,.8,5.53,.7,.89,.94,1.78,1.06,2.81,.15,1.28,.36,2.56,.61,3.83,.08,.42,.4,.78,.76,1.43Zm10.24-31.24c-2.86-.29-5.59,.15-8.21,1.32,.03,.14,.06,.29,.08,.43,.6-.12,1.2-.25,1.97-.4,.2,.07,.63,.21,1.03,.34,.94,.94-1.02,2.31,.14,3.04,1.2-.67,2.18-1.19,3.13-1.76,.29-.18,.58-.44,.75-.73,.38-.66,.68-1.36,1.11-2.23Zm12.18,33.75c-.29,0-.44-.04-.56,0-1.29,.46-2.58,.93-3.87,1.39-.21,.08-.5,.26-.64,.18-.87-.46-1.64-.09-2.45,.14-.68,.2-1.4,.29-2.11,.37-1.81,.2-3.63,.36-5.72,.56,3.01,2.09,11.94,.45,15.35-2.65Zm4.93-9.22c.16,.39,.26,.64,.46,1.14,.89-1.68,1.98-3.05,.78-4.88-1.09,1.46-2.64,2.59-2.59,4.73,.45-.33,.85-.62,1.35-.99Zm-26.74,9.54c1.44,1.17,2.43,1.49,3.63,1.12-.27-.42-.53-.82-.81-1.25-.81,1.67-1.86-.04-2.83,.13Zm18.46-11.17c-1.06,.46-1.56,1.22-1.43,2.28,.13,.06,.26,.12,.39,.18l1.04-2.45Z"/><path d="M93.84,0c.56,.16,1.13,.29,1.69,.47,4.12,1.38,6.56,5.5,5.82,9.8-.73,4.24-4.45,7.25-8.85,7.19-4.16-.06-7.81-3.33-8.38-7.5-.58-4.3,2.04-8.36,6.19-9.59,.35-.11,.7-.24,1.05-.36,.83,0,1.66,0,2.49,0Z"/><path d="M258.6,23.69c12.21,.36,21.75,4.75,28.15,14.85,4.12,6.5,5.35,13.71,4.59,21.29-.74,7.33-3.54,13.76-8.71,19.05-5.49,5.62-12.26,8.64-20.04,9.37-8.1,.76-15.64-.91-22.36-5.59-7.57-5.27-11.84-12.62-13.11-21.71-1.07-7.7,.1-15.05,4.09-21.79,4.92-8.29,12.32-13.09,21.72-14.84,2.03-.38,4.12-.47,5.67-.63Zm14.31,32.35c-.03-.66-.06-1.31-.1-1.97-.44-7.27-5.1-12.3-12.32-13.06-5.6-.59-11.5,2.06-13.89,8.27-1.49,3.87-1.58,7.84-.55,11.81,1.49,5.75,6.21,9.71,11.91,10.1,6.16,.42,11.27-2.54,13.57-7.87,1-2.32,1.38-4.77,1.39-7.28Z"/><path d="M397.64,64.67c5.05,1.43,10.18,2.89,15.46,4.39-.4,1.1-.71,2.12-1.13,3.09-3.12,7.16-8.42,12.04-15.8,14.46-9.76,3.2-19.27,2.47-28.18-2.82-7.97-4.73-12.54-11.93-14.19-20.97-1.41-7.72-.79-15.31,2.91-22.32,6.04-11.46,15.72-16.99,28.67-16.68,5.37,.13,10.49,1.33,15.17,4.05,6.81,3.95,10.72,10.02,12.54,17.54,1.16,4.79,1.3,9.65,.84,14.54-.03,.27-.11,.54-.19,.88h-42.54c.34,1.31,.49,2.55,.96,3.65,2.06,4.81,5.94,7.28,10.95,7.92,1.98,.25,4.09,.09,6.06-.29,3.75-.71,6.35-3.04,7.91-6.52,.11-.25,.22-.5,.34-.75,.01-.03,.05-.04,.2-.15Zm-25.93-15.94h24.37c-.03-2.88-1.54-5.89-3.82-7.69-3.85-3.03-10.58-3.46-14.91-.9-3.24,1.91-5.1,4.75-5.64,8.59Z"/><path d="M207.32,62.19c5.46,1.67,10.87,3.32,16.42,5.02-.38,1.12-.66,2.19-1.08,3.19-3.98,9.44-11.07,15.25-21.03,17.28-10.01,2.04-19.35,.17-27.57-6.08-6.98-5.31-10.89-12.49-11.92-21.18-1.02-8.67,.66-16.76,5.88-23.88,5.3-7.24,12.56-11.31,21.42-12.47,7.06-.92,13.89-.04,20.22,3.37,6.75,3.63,11.19,9.21,13.4,16.55,.09,.29,.14,.6,.23,.99-5.55,1.67-11.06,3.33-16.56,4.99-.44-.98-.78-1.92-1.26-2.8-2.58-4.78-7.29-6.72-12.49-6.17-7.42,.78-12.17,6.01-12.57,13.58-.16,3.08,.09,6.11,1.49,8.9,2.81,5.61,7.55,8,13.65,7.69,5.62-.29,9.51-3.16,11.52-8.48,.05-.13,.11-.25,.23-.51Z"/><path d="M107.55,69.28c5.26-.94,10.43-1.86,15.69-2.8,.08,.34,.17,.66,.23,.98,.72,3.85,3.31,6.39,7.19,7.03,1.9,.31,3.83,.39,5.62-.39,1.01-.44,2.04-1.09,2.75-1.92,1.73-2.01,1.25-4.93-1.03-6.26-1.23-.72-2.65-1.17-4.03-1.54-4.03-1.09-8.13-1.94-12.12-3.16-3.38-1.04-6.33-2.94-8.72-5.6-5.44-6.07-5.76-15.64-.72-22.55,3.66-5.01,8.71-7.82,14.74-8.83,6.68-1.12,13.2-.53,19.26,2.71,5.91,3.16,9.34,8.14,10.37,14.95-5.17,.94-10.28,1.88-15.44,2.82-.2-.74-.35-1.4-.56-2.05-1.66-4.98-8.4-7.16-12.7-4.1-1.56,1.11-2.34,2.61-2.1,4.55,.24,1.88,1.47,3.02,3.15,3.47,2.7,.72,5.45,1.24,8.2,1.77,3.89,.75,7.65,1.84,11.09,3.88,11.7,6.94,11.05,20.69,4.51,28.3-3.59,4.17-8.24,6.43-13.58,7.34-6.54,1.11-12.99,.74-19.12-1.95-6.76-2.97-11.12-8.03-12.57-15.4-.05-.24-.08-.48-.1-.72-.01-.13,0-.27,0-.53Z"/><path d="M288.54,25.59c4.14,0,8.12,0,12.09,0,2.32,0,4.64,.04,6.95-.02,.85-.02,1.25,.21,1.56,1.06,4.39,11.89,8.82,23.76,13.25,35.63,.12,.31,.25,.62,.47,1.17,.44-1.25,.81-2.27,1.16-3.29,3.83-11.17,7.67-22.34,11.47-33.51,.26-.78,.59-1.06,1.45-1.06,5.81,.04,11.62,.02,17.43,.02,.31,0,.62,0,1.09,0-.14,.41-.24,.72-.36,1.02-7.47,19.65-14.95,39.31-22.4,58.97-.29,.75-.61,1.04-1.46,1.03-5.6-.05-11.21-.04-16.81,0-.71,0-1.02-.22-1.28-.86-8.08-19.75-16.19-39.49-24.28-59.23-.1-.25-.18-.5-.33-.92Z"/><path d="M439.83,86.55h-18.58V25.68h17.94v7.55c1.35-1.96,2.81-3.68,4.74-4.95,4.65-3.06,9.75-3.87,15.18-2.9,.44,.08,.83,.17,.83,.82-.03,5.81-.03,11.62-.04,17.43,0,.06-.04,.13-.09,.27-1.03-.13-2.07-.29-3.12-.4-2.53-.26-5.05-.19-7.49,.59-5.11,1.64-7.8,5.4-8.82,10.45-.4,1.98-.52,4.05-.53,6.08-.06,8.2-.02,16.39-.02,24.59,0,.41,0,.82,0,1.33Z"/><path d="M102.04,86.55h-18.51V25.65h18.51v60.9Z"/><path d="M25.09,33.82c.36,.49,.64,.86,1.04,1.41-.83-.05-1.5-.1-2.32-.15,.09-.38,.17-.74,.22-.96,.46-.39,.94,.87,1.06-.3Z"/><path d="M27.05,42.23c-.64-1.21-1.27-2.42-1.91-3.62,.1-.05,.19-.11,.29-.16,.69,1.18,1.38,2.35,2.07,3.53-.15,.09-.3,.17-.45,.26Z"/><path d="M27.84,36.43c-.32-.61-.68-1.21-.93-1.85-.06-.16,.22-.46,.41-.8,.34,.95,.62,1.7,.89,2.45-.12,.07-.25,.13-.37,.2Z"/></svg>