<?xml version="1.0" encoding="utf-8"?>
<!-- Generator: Adobe Illustrator 19.2.1, SVG Export Plug-In . SVG Version: 6.00 Build 0)  -->
<svg version="1.1" id="layer" xmlns="http://www.w3.org/2000/svg" xmlns:xlink="http://www.w3.org/1999/xlink" x="0px" y="0px"
	 viewBox="0 0 652 652" style="enable-background:new 0 0 652 652;" xml:space="preserve">
<style type="text/css">
	.st0{fill:#002E6D;}
	.st1{fill:none;stroke:#FFFFFF;stroke-width:14.7004;}
	.st2{fill:#FF671B;}
	.st3{fill:#FFFFFF;}
</style>
<g>
	<path class="st0" d="M724.8,314.6L344.5,78c-13.5-8.4-33.1-8.4-46.6,0L-82.4,314.5c-18.8,11.7-23.1,24-22.9,32.9v194.8
		c0,16.2,13.6,29.5,30.3,29.5h792.5c16.7,0,30.3-13.2,30.3-29.5V347.7C748,338.7,743.8,326.4,724.8,314.6"/>
	<g>
		<path class="st1" d="M724.8,314.6L344.5,78c-13.5-8.4-33.1-8.4-46.6,0L-82.4,314.5c-18.8,11.7-23.1,24-22.9,32.9v194.8
			c0,16.2,13.6,29.5,30.3,29.5h792.5c16.7,0,30.3-13.2,30.3-29.5V347.7C748,338.7,743.8,326.4,724.8,314.6"/>
	</g>
	<path class="st2" d="M705.7,354.5c21.9,0,24.7-9.4,6.3-20.9L338,100.6c-9.2-5.8-24.3-5.8-33.5,0L-69.6,333.7
		c-18.4,11.5-15.6,20.9,6.3,20.9H705.7"/>
	<path class="st0" d="M469.5,236.1c-11.4-20.2-25-30.5-41.7-39.1c12.8-2.9,17.5-8.9,20.2-17.5c3.9-14.1,2-32.2-28.4-41l-2.5-0.7
		l0.7,2.2c2.5,7.6,2.6,12.5,0,15.1c-3.6,3.6-12.5,2.5-21.9,1.4c-2.4-0.3-4.8-0.5-7.4-0.8c0-1.9-0.7-3.6-2.1-5.1
		c-4.9-5.2-16.7-6.1-18.9-6.3c-7.2-0.5-10-2-13-3.7c-3-1.8-6.2-3.5-13.8-3.9c-3.8-0.2-6.4,0.7-8.5,1.4c-1.8,0.5-2.9,1-4.4,0.9
		c-3.1-0.1-4.3-0.9-5.7-1.7c-1.1-0.7-2.2-1.3-3.9-1.4l-4.2-0.3c-4.6-0.3-11.7,3.2-17.4,6c-2.8,1.4-5.8,2.9-7,3.1
		c-5.5-0.2-8.9-0.2-9.9-0.1c-3.4-0.1-8.5,1-12.5,3.8c-3,2.2-4.7,5-5.2,8.2c-5.1,0-10.1,0.1-15.1,0.3c-11.9,0.6-22.2,1.1-25.1-3
		c-2-2.6-0.6-7.3,4-14.2l1.4-2.2l-3,0.5c-37.7,6.4-45.7,26.1-45.7,41.9l-0.1,0.1l0.1,0c2.2,12,6.3,22.3,31.8,24.2
		c-20.7,9.3-39,19.3-58.7,41c-4.1,3.1-6.5,7.6-6.5,12.2c0.1,5.9,4.2,10.8,11.8,13.2c23.4,5.7,40.6,8.1,59,3.2
		c0.9,2.4-2.8,16-9.6,24.8c-30.7,23.9-45.7,56.9-48,65.8c0,0-2.8,9.5-3.1,10.8c-3.1,8.9,32.2-7.8,40.3-4.8c3,1,11,0.1,15.4,2
		c1.2,0.6,18.5-0.1,34,0.9c5.4,0.4,9,0,12.7-0.4c4.2-0.3,8.6-0.8,15.9-0.5c10.6,0.5,28.9,6.4,46.5,12c15.5,5,30.1,9.6,38.1,10.2
		c0.6,0.2,14.9,2.9,23.7-0.3c11.1-4,39.4-10.4,40.6-19.8c1.2-10.5-18.7-27.2-25.3-30.1c3.5-3.2,0.5-0.1,3.8-3.1
		c16.5-14.1,30.3-25.7,30.7-41.9c0.1-3.6-0.6-6.7-1.2-9.4c-0.6-2.6-1.1-4.8-0.5-6.5c0.1-0.5,1-1.5,1.9-2.7c2.7-3.3,7-8.6,8.6-18.5
		c5.1,0.9,10.4-1,14.8-2.4c1.5-0.6,2.9-1.1,4.1-1.4l0.1-0.1h0.1c5.5-2.1,9.1-5.5,10.8-9.7C472.1,244.8,471.8,240.6,469.5,236.1"/>
	<path class="st3" d="M422.5,257.4v0.1c-0.5,12.7-11.9,23.3-25.6,23.3c-13.8,0-24.3-10.8-23.3-23.7V257c0.2-2.8,2.8-4.9,5.6-4.8
		c2.8,0,5,2.2,4.8,4.9v0.1c-0.5,7.3,5.5,13.5,13.4,13.6c8,0,14.6-6.1,14.9-13.3v-0.1c0.1-2.7,2.4-4.8,5.3-4.8
		C420.4,252.5,422.6,254.7,422.5,257.4 M248.2,299.2c4.7,0.3,4,4.7,3.4,7.5c-0.3,2.7-0.8,5.6,0.5,8.3c1.8,4.2,6,7.6,12.4,10
		c0.8,0.3,24.4,7.8,31.6,14.7l1,0.9l-1.3,5.9l-6.6-0.7c-4.3-2.9-11.4-4.7-18.9-6.4c-16.5-3.8-37-8.6-30.9-31.2
		C240.5,303.5,243.7,298.9,248.2,299.2 M374.4,321.1c-3.5,14.7-13.8,31-31.9,31h-4.2c-4.7,0.1-9.7-3.3-12.7-6.8
		c-1.4-1.5-3.1-3.9-2.8-6.3c0.1-1.1,0.7-1.9,1.1-2.2c1.3-1,2.8-1,4.1-1.1l0.7,0.1H340c2.4,0.1,3.2,0.1,4.3-0.1c0.5,0,0.9,0,1.3,0
		c4.3-0.1,12.1-0.4,25.9-16l4.4-5L374.4,321.1z M339.6,234.8c-0.9,0.8-2.3,1-5.2,0.5c-5.2,0-10,0.5-13.3,0.8
		c-0.8,5.9-6.7,10.6-13.2,10.5c-3.4,0-6.5-1.4-8.5-3.7c-1.8-2.1-2.5-4.6-1.9-7.3c0.5-2.1,1.3-3.6,2.4-4.9c-3.4-0.7-8.4,0.1-12.4,4.7
		c-2.5,2.9-5.2,3.3-6.7,2.5c-1.5-0.7-1.5-2.4-0.6-3.9c6.1-9,14.8-14.8,23.5-15.6c7.2-0.5,13.5,2.3,18.1,8.3
		c5.3,1.5,16.5,4.9,17.7,5.6l0.5,0.7C340.2,233.6,340.1,234.2,339.6,234.8 M405.3,197.4c3.6,6.1,3.3,11.6,1.2,14.3
		c13.8,5.6,26.6,16.7,33.8,27.6c-13.2-8.6-25.5-12.1-35.4-13.4c1.9,1.2,2,6.3-1.1,9.1c6.6-2.1,28.7,4.4,31.5,10
		c7.2,6.7,13.2,4.8,18.1,3.5c7.5-2,4.4-10.1,0.1-16.4C441.8,216.9,423.8,203.5,405.3,197.4 M242.1,237.5
		c-14.8-0.4-31.5,0.3-57.5,13.5l-2-2.2c17.8-17.9,47.5-28,69-31.4l2.8-0.5l-11.1,20.7H242.1z M268.6,182.7
		c-6.4,11.7-44.7,21-70.4,5.5c-12.3-7.5-8-30.6,14.1-37.5c-3.8,17.9,11.7,17.5,36.7,15.2C275.2,163.4,272.2,176.3,268.6,182.7
		 M303.7,268c0.4,1,9.5,12.9,11.1,14.4c0.4,0.4,0.7,0.8,1.2,1.3c3.7,4,9.8,10.7,28.6,9.7c2.1-0.1,5.6-0.6,9.8-1.1
		c10.5-1.2,24.9-3.1,31.3-1.1l-0.3,1.5c-15.8,1.3-23.9,3.7-27.3,4.8c-0.9,0.3-1.5,0.5-1.8,0.5l-16.2,3.1
		c-11.7,2.1-42.4-6.4-48.6-13.7c-2.2-2.6-2.2-5.8-1.8-8c0.5-2,1.5-4.3,2.2-4.9c2.8-2.1,10.1-6.6,10.5-6.9L303.7,268z M316.6,217
		c-7.4-0.8-12.7-4.3-16.9-7.1c-3.2-2-5.8-3.7-8.2-3.8c-11.5-0.5-15.1,10.3-18.3,20.2c-1,3.1-2,6.1-3.3,8.6l-0.7,0.8
		c-0.9,0.9-1.7,0.9-2.7,0.9c-0.9,0.1-2-0.1-3.1-1.4c-1.3-1.4-1.7-12.1-0.3-18.7c3.1-14.5,15.3-20.1,19.4-21.9l1.8-0.6
		c10.9-2.6,20.1,5.4,23.1,8c0.8,0.7,2.1,1.7,3.4,2.7c8.2,6.5,10.5,9,9.4,11C319.8,216.8,318.4,217.2,316.6,217 M363.2,192.8
		c-5.4-2.7-9.4-1.5-14.9,2.8c-4.3,3.4-10-0.3-11.3-2.1c-1.3-1.8-2.2-3.5-7.3-7.9c-3.2-2.5-8.3-0.7-12.2,2
		c-3.9,2.4-11.8,4.5-18.6,1.1c-10.8-5.6-25.6-3.6-30.7,4.3c-4.2,4.9-7.7,8.4-20.4,10.4c-28.8,7.2-53.3,18.3-78.6,42.2
		c-3.5,4.3-6.5,10.9,5.1,13.7c22.1,5.7,38.5,9.2,64.8-5.9c10.6-7.4,9.8-0.1,3,7.5c-1.9,2.1-6.1,5.2-8.2,6.7
		c-1.4,12.3-0.3,14.2-9.7,30.3c-59.3,63.9-8.6,56.5,11.7,56.5c20.4,0,34.1,1.8,47.8,4c14.3,2.3,53.7,16,76.1,18
		c7.1,0.6,15.4,0.2,18.1-1c2.4-1.1,6-3.4,7.7-6.2c4.7-8-3.2-8.7-6.9-8.6c-5.5,0-4.7,7.4-9.3,7.4c-3.6,0.1-5.5-4.4-5.1-7.8
		c0.3-3,6.3-8.9,10.9-14.1c18.1-20.2,44.5-26.7,44.8-53.7c0.1-7.6-9.3-1.7-9-5.6c0.2-3.2,16.4-14.7,17.1-27.5l0.2-3.5
		c0.2-3.6-7-9.4-13.7-9.7l-34-0.7c-5.3,0.5-9.5,3.7-9.5,3.7c-9.2,11.6-13.7,7.4-8.2-2.5c2.5-4.5,6.3-8.2,12.6-8.4
		c3.9-0.1,7.4-1.7,11.3-1.6c-1.6-6.3-0.3-12.7,7-14.3c4-1.1,5-5.3,5.4-11l0.3-3.2c0.1-0.7,0.1-6.3-4-6.5
		c-7.3-0.3-14.7,13.6-17.2,13.5c-2.6-0.2-3.7-2.2-2.8-4.4c0.8-3.5,8.6-14.7,18-18.8c2.2-0.9-2.3-3.9-3.8-4
		c-5.6-2.6-9.2,1.1-13.5,2.6C372.3,192.7,367.3,194.8,363.2,192.8 M378.8,176.4c3.4-0.7,8.5,1.5,10.4,0.3c0.7-0.5,0.8-1.3,0.5-1.9
		c-0.5-0.6-8.2-4.8-12.3-8.8c-5-4.8,0-14.2-10.2-13.9c0,0-7,0.7-11.3,0c-6.9-1.1-10.7-6.5-15.6-6.7c-6.6-0.4-6.9,4.1-13.7,3.7
		c-5.5-0.3-6.5-3.2-10.9-3.4c-9.2-0.5-12.4,7.4-18.6,7l-6.3-0.3c-5.4-0.3-10.6-0.2-14.5,3.9c-4.4,4.4,5.2,2.9,6.2,10.2
		c0.3,2.3-3.9,10.3,0.5,8.4c8.9-2.6,17.8-0.7,21.7,1.5c8.4,4.8,10.5-3.3,18.8-3.8c5.7-0.4,10.9,2.3,12.5,3.8
		c2.8,2.3,4.4,6.1,8.4,7.1c2.8,0.7,5.5-3,10.7-3.2c5.2-0.2,8.2,2,11.5,1.8C371.8,181.7,373.4,177.5,378.8,176.4 M387.9,163.2
		c21.5,3.7,38.1,4.3,39.4-12.2c16.8,7.8,14.9,28.8,2.6,34.8c-7.4,2.6-17.8,3.2-27.3,1.6c3-1.9,6.2-7.8,0.7-12
		C397.9,171.1,393.8,168.2,387.9,163.2"/>
	<path class="st3" d="M37.5,496.9c1.5,0,5,0,5,3.1c0,1.7-2.1,9.4-2.3,10.9c-2.1,9.6-2.3,10.5-8.6,10.5l-73.9,0.2
		c-8.4,0-9.8-0.2-9.8-3.6c0-1.9,14-68.3,15.9-77.7c3.4-16.3,3.8-18.2,7.3-35.4c1.9-9.8,4-10.3,9.4-10.3c10,0,54-0.6,62.8-0.6
		c1.7,0,8.4,0,9.6,0.2c1.9,0,3.8,0.4,3.8,2.9c0,1.7-3.8,18.9-5,20.1c-0.9,0.9-1.3,1.3-11.5,1.3l-34.5-0.2c-2.5,12.1-2.7,13.6-5.5,26
		c15.5-0.6,21.8-0.8,38.9-0.8c4.6,0,7.1,0,7.1,3.2c0,1.1-3.4,18-4.8,19.7c-1.1,1.7-3.2,1.7-8.2,1.7C20.7,468,7.7,468-4.8,468
		c-1.9,10.2-4.2,20.5-6.9,30.4c12.2-0.5,20.7-0.9,32-1.1L37.5,496.9"/>
	<path class="st3" d="M144.8,494.2c4,0,5.2,1.1,5.2,3.4c0,2.3-3.4,19.7-5.2,22c-0.6,1-1.5,1.3-4,1.5c-21,0.4-47.5,0.4-68.9,0.4
		c-11.5,0-13.2,0-13.2-3.8c0-1,1.5-7.8,3.2-16.3c13.6-64.7,20.7-97.6,22.2-103.4c0.9-2.7,1.7-3.4,4.8-3.8c3.1-0.4,12.7-0.4,16.5-0.4
		c3.1,0,11.1,0,13.2,0.6c1.7,0.4,1.9,1.9,1.9,3.4c0,3.8-17.1,81.9-20.1,97.4C112,495,133.7,494.2,144.8,494.2"/>
	<path class="st3" d="M282.8,522.4c-3.2,0-4.8-0.4-4.8-3.6c0-0.8,2.3-32,6.7-73.5c-4.4,7.5-34.7,56.5-37.2,60.5
		c-5.7,9.8-8.6,12.2-14.2,14.6c-1.3,0.6-5.2,1.9-7.3,1.9c-4.4,0-5.3-4.6-7.5-15.7c-2.5-12.1-8-40.6-10.9-63.9
		c-3.2,12.2-17.8,73.7-19.9,77.1c-0.9,2-1.7,2-8.4,2.1c-2.1,0-12.8,0.4-14,0.4c-2.9,0-5.4,0-5.4-3c0-2.9,10.1-40.4,15.1-58.4
		c8-28,9-31,14.4-50.2c4-13.8,4.4-14,5.4-14.9c1.1-1.1,2.7-1.3,9-1.7c5-0.4,18-1.3,22.6-1.3c3.8,0,5,0.8,6.1,5.7
		c0.8,3.4,9.4,56.7,11.1,67.4c3.6-5.9,36.8-61.8,40.4-67.6c3.1-4.8,6.3-5.6,12.6-5.6c3.8,0,17.6,0,20.3,0.4c2.7,0.6,2.7,3.4,2.7,5.7
		c0,11.3-3.6,60.7-4.2,70.8c-0.4,7.5-2.5,45-3.8,48.8c-0.6,1.5-1.7,2.9-5.9,3L282.8,522.4"/>
	<path class="st3" d="M422.4,496.9c1.5,0,5,0,5,3.1c0,1.7-2.1,9.4-2.3,10.9c-2.1,9.6-2.3,10.5-8.6,10.5l-73.9,0.2
		c-8.4,0-9.8-0.2-9.8-3.7c0-1.9,14-68.3,15.9-77.7c3.4-16.2,3.8-18.2,7.3-35.4c1.9-9.8,4-10.3,9.4-10.3c9.9,0,54-0.6,62.8-0.6
		c1.7,0,8.4,0,9.6,0.2c1.9,0,3.8,0.4,3.8,2.9c0,1.7-3.8,18.9-5,20.1c-0.9,0.9-1.3,1.3-11.5,1.3l-34.5-0.2c-2.5,12.1-2.7,13.6-5.5,26
		c15.5-0.6,21.8-0.8,38.8-0.8c4.6,0,7.1,0,7.1,3.2c0,1.1-3.4,18-4.8,19.7c-1.1,1.7-3.2,1.7-8.2,1.7c-12.4-0.2-25.5-0.2-37.9-0.2
		c-1.9,10.2-4.2,20.5-6.9,30.5c12.3-0.6,20.7-1,32-1.2L422.4,496.9"/>
	<path class="st3" d="M517.8,452.9c9.2-6.1,13-16.5,13-23.4c0-10.3-9.2-13.6-19.1-13.6c-2.5,0-6.1,0-9.3,0.4
		c-1.5,7.9-7.5,32.9-9.8,43.1C498.4,459.2,508.3,459,517.8,452.9 M452.4,522.4c-8.2-0.2-10-0.2-10-3.4c0-6.7,25.1-117.3,26.8-121.6
		c1-2.7,2.5-3.1,5.6-3.4c6.9-1.1,23-1.1,30.8-1.1c15.3,0,34.2,0.4,46.5,7.8c9.4,5.7,14.2,16.5,14.2,27.4c0,12.6-6.3,25.1-17.2,34.8
		c-5.1,4.5-12.2,8.4-16.8,10.3c3.5,5,16.4,23.2,29.1,39.6c2.1,2.8,2.2,3.6,2.2,4.4c-0.1,1.7-0.9,2.1-9.3,4.5
		c-2.6,0.6-13.7,4.3-16.1,4.9c-1,0.1-3.5,0.9-4.7,0.8c-0.8-0.1-1.7-0.3-3.8-3.3c-3.2-4.2-24.1-35.9-27.4-41.9c-3.6,0.8-8,1.2-15,1.8
		c-1.3,5.5-6.7,31.8-7.3,34.6c-0.8,2.9-1.7,3.6-6.9,3.6L452.4,522.4z"/>
	<path class="st3" d="M598.4,428.6c-3.5,6.2-4.6,8.2-6.7,8.5c-1.6,0.2-13.2-4-14.6-5.5c-0.2-0.5-0.5-1-0.5-1.3
		c-0.3-2.5,9.5-24.7,11.9-30c1.4-2.9,4.5-10.3,6.9-10.6c1.2-0.1,7.4,0.8,8.8,1.1c7.6,1.6,8.5,1.7,8.9,4.6
		C613.5,397.1,607,412.6,598.4,428.6"/>
	<path class="st3" d="M602.3,522.9c-3.5-0.9-3.6-1.9-3.6-3.6c0-3.3,0.9-7.5,3-15.1c1.1-4.6,1.8-6.5,4.2-6.5c1.1,0,6.5,1.1,7.5,1.3
		c5.2,0.9,13,1.7,18,1.7c10.7,0,18-5.5,18-12.4c0-5.2-2.5-8-13-19.4c-13.6-14.7-20.3-22.9-20.3-35c0-20.5,19.3-42.7,62-42.7
		c4.4,0,14.4,0.2,18,1.3c1.5,0.6,2.3,1.1,2.3,2.9c0,0.9,0,1.4-2.1,9.6c-3,11.9-3,12.3-6.3,12.3c-0.2,0-11.5-0.7-13.8-0.7
		c-18.5,0-22.2,10-22.2,14.2c0,4.8,1.7,7.8,10.5,16.9c18,18.6,23.7,24.3,23.7,36.2c0,21.6-23.7,42.3-60.3,42.3
		C614.7,526,603.5,523.1,602.3,522.9"/>
	<g>
		<path class="st3" d="M706.7,498.4c4,0,7.1,3.3,7.1,7.4c0,4.2-3.1,7.5-7.1,7.5c-4,0-7.1-3.3-7.1-7.5
			C699.5,501.7,702.7,498.4,706.7,498.4L706.7,498.4z M706.6,499.9c-3,0-5.3,2.7-5.3,5.9c0,3.3,2.3,6,5.4,6c3,0,5.3-2.6,5.3-6
			C712,502.5,709.7,499.9,706.6,499.9L706.6,499.9z M705.6,509.7H704v-7.4c0.6-0.1,1.5-0.3,2.7-0.3c1.3,0,1.9,0.2,2.4,0.6
			c0.4,0.3,0.7,0.9,0.7,1.6c0,0.9-0.6,1.5-1.4,1.8v0.1c0.7,0.2,1.1,0.8,1.3,1.8c0.2,1.1,0.3,1.6,0.5,1.8h-1.8
			c-0.2-0.3-0.3-0.9-0.5-1.8c-0.1-0.8-0.5-1.2-1.4-1.2h-0.7V509.7z M705.6,505.5h0.8c0.9,0,1.6-0.3,1.6-1.1c0-0.7-0.5-1.1-1.5-1.1
			c-0.4,0-0.7,0-0.9,0.1V505.5z"/>
	</g>
</g>
</svg>
