<?xml version="1.0" encoding="UTF-8"?><svg id="Capa_1" xmlns="http://www.w3.org/2000/svg" viewBox="0 0 595.28 841.89"><defs><style>.cls-1{fill:#fff;}</style></defs><path d="M162.85,410.83c-4.94-1.08-9.9-2.05-14.81-3.26-5.14-1.26-10.47-2.19-15.27-4.27-7.11-3.08-9.06-8.9-4.87-15.31,3.21-4.91,7.32-9.56,11.91-13.2,21.46-17.03,46.44-26.63,72.71-33.26,12.81-3.23,25.84-5.14,39.1-4.77,3.02,.08,6.07,.68,9,1.43,1.21,.31,2.62,1.48,3.05,2.6,.24,.62-1.17,2.4-2.19,2.87-3.35,1.51-6.76,3.18-10.33,3.87-24.61,4.72-48.82,10.8-71.46,21.8-7.48,3.63-14.67,8.12-21.32,13.11-7.02,5.26-6.34,9.55,2.14,11.54,12.5,2.94,25.32,4.53,38.02,6.57,3.01,.48,6.1,.41,9.14,.74,4.2,.46,5.38,2.56,3.41,6.24-4.44,8.31-11.76,12.04-20.81,13.7-24.23,4.44-47.43,11.88-68.39,25.24-7.8,4.97-14.79,10.89-20.32,18.38-1.34,1.82-2.61,3.7-3.72,5.66-7.31,12.92-2.71,23.82,11.7,27.4,13.76,3.42,27.25,.88,40.57-2.61,16.96-4.44,31-14.34,44.9-24.48,1.41-1.03,3.41-1.23,5.14-1.81,.06,1.89,.68,3.99,.08,5.64-2.8,7.67-7.78,13.98-13.93,19.17-19.36,16.34-41.51,26.04-67.06,27.4-10.22,.54-20.18-.68-29.79-4.16-19.6-7.1-27.07-24.58-18.83-43.73,6.07-14.1,16.71-24.21,29.04-32.67,17.6-12.08,37.05-20.19,57.57-25.84,1.92-.53,3.75-1.4,5.63-2.12,0-.62,0-1.24,0-1.87Z"/><path d="M405.42,362.86c-7.52,2.27-13.95,4.22-20.39,6.16-1.91,.58-3.78,1.33-5.73,1.69-3.69,.68-5.9-1.75-4.36-5.16,3-6.64,6.94-12.8,14.23-15.34,8.01-2.79,16.19-5.13,24.38-7.38,2.83-.78,4.46-2.19,5.86-4.75,8.8-16.08,17.71-32.1,26.77-48.04,2.06-3.62,4.57-8.84,9.22-7.25,3.31,1.13,5.7,5.78,7.83,9.26,1.76,2.87,.91,5.87-1.08,8.89-7.27,11.07-14.21,22.35-21.28,33.55,.25,.34,.5,.68,.75,1.02,4.74-.8,9.47-1.62,14.21-2.39,22.33-3.59,44.7-7.04,67.38-6.74,5.74,.07,11.53,1.6,17.16,3.03,1.82,.46,3.17,2.73,4.74,4.17-1.85,.94-3.62,2.46-5.57,2.73-14.46,2.06-29.07,3.24-43.41,5.91-21.53,4.01-42.89,8.96-64.28,13.69-1.7,.38-3.75,1.79-4.54,3.3-16.57,31.51-33.22,63-45.51,96.51-2.81,7.67-4.41,15.81-6.05,23.85-.52,2.55,.27,5.55,1.11,8.14,.98,2.99,.7,5.38-1.31,7.76-4.17,4.93-9.38,8.24-15.54,9.99-4.28,1.22-7.55-.84-7.26-5.27,.44-6.7,1.16-13.54,2.98-19.98,8.32-29.37,20.93-57.07,33.88-84.61,4.63-9.85,9.66-19.53,14.49-29.29,.34-.69,.56-1.45,1.31-3.44Z"/><path d="M518.92,392.63c-.73,12.2-6.49,25.55-14.98,37.69-15.05,21.54-34.97,36.31-61.15,41.41-5.24,1.02-10.91,1.03-16.22,.31-12.19-1.66-18.67-11.35-16.85-24.99,2.35-17.67,11.28-31.6,25.5-42.13,2.39-1.77,5.4-2.87,8.29-3.71,1.38-.4,3.15,.52,4.74,.84-.41,1.44-.46,3.14-1.27,4.29-6.03,8.53-11.04,17.55-14,27.61-.71,2.4-1.27,4.91-1.42,7.41-.58,9.45,4.6,14.44,13.97,12.94,4.65-.74,9.46-2.02,13.58-4.22,18.04-9.65,29.99-24.75,37.07-43.71,1.35-3.61,1.76-7.86,1.45-11.72-.62-7.91-5.37-12.07-13.31-12.71-12.04-.98-22.76,3.28-33.13,8.59-4.96,2.54-9.59,5.72-14.44,8.47-2.49,1.41-5.53,3.74-8,1.23-2.57-2.62,.05-5.55,1.67-7.79,9.06-12.56,21.79-20.07,35.98-25.35,9.74-3.62,19.79-4.86,30.2-3.28,14.22,2.16,22.48,11.56,22.33,28.83Z"/><path d="M264.48,448.89c6.36,4.95,13.58,7.01,21.04,8.32,3.79,.66,7.67,.73,11.49,1.23,4.5,.59,5.17,1.61,3.55,5.7-.97,2.45-2.17,4.86-3.58,7.08-2.53,3.97-6.15,5.91-11.03,5.92-11.83,.02-22.42-3.85-32.43-9.73-1.24-.73-2.47-1.48-4.22-2.53-4.75,6.02-9.69,11.75-14.04,17.9-7.51,10.64-14.82,21.43-21.88,32.38-3.43,5.33-8.54,7.39-14.12,8.83-2.81,.73-4.14-1.47-3.81-3.75,.6-4.14,.88-8.77,2.98-12.16,7.14-11.49,14.8-22.68,22.69-33.67,4.41-6.14,9.58-11.75,14.58-17.45,1.65-1.88,1.61-3.12,.15-5.1-12.23-16.59-12.35-34.27-3.85-52.3,1.66-3.51,5.16-6.26,8.18-8.96,1.02-.91,3.16-.57,4.79-.81,.04,1.52,.39,3.11,.06,4.54-2.19,9.56-3.38,19.22-.92,28.81,1.09,4.25,3.6,8.19,5.79,12.08,1.5,2.66,3.25,2.65,5.6,.22,14.82-15.3,30.02-30.22,47.47-42.56,4.49-3.18,9.61-5.62,14.71-7.75,3.81-1.59,5.4-.09,4.54,4-1.29,6.14-3.26,11.95-8.82,15.94-16.82,12.06-31.84,26.18-46.31,40.9-.82,.84-1.58,1.75-2.62,2.91Z"/><path d="M443.68,527.28c-5.46,.5-10.93,.97-16.39,1.49-28.83,2.77-57.77,4.68-86.46,8.51-47.71,6.38-94.57,17.1-140.67,31.02-5.84,1.76-11.73,3.47-17.7,4.68-8.59,1.75-15.19-2.54-20.85-8.25-2.75-2.78-1.39-6.31,3.07-7.98,6.58-2.47,13.27-4.68,20.02-6.64,31.97-9.25,64.61-15.41,97.51-20.09,24.86-3.54,49.78-7.07,74.79-9.12,21.56-1.77,43.29-1.78,64.95-1.88,5.94-.03,11.91,2.3,17.81,3.8,1.51,.38,2.78,1.7,4.16,2.59-.08,.62-.16,1.24-.24,1.86Z"/><path d="M365.71,397.49c-1.38,2.87-2.36,6.02-4.2,8.55-9.06,12.45-15.51,26.3-21.48,40.34-3.88,9.13-6.82,18.66-9.89,28.11-2.51,7.72-6.64,11.58-13.9,12.16-5.08,.41-7.6-2.04-6.16-6.91,3.35-11.31,6.41-22.8,10.96-33.64,7.02-16.73,15.11-33.03,22.94-49.42,1.53-3.2,3.82-6.06,5.91-8.96,1.97-2.73,4.85-5.11,8.07-3.67,2.44,1.09,4.42,3.9,5.85,6.38,1.05,1.82,.87,4.35,1.23,6.56,.23,.16,.45,.33,.68,.49Z"/><path d="M224.57,325.44c-2.71-.66-6.7-1.5-10.58-2.69-.8-.24-1.5-1.77-1.61-2.78-.05-.42,1.49-1.36,2.4-1.51,19.55-3.11,37-11.28,53.47-21.89,2.46-1.58,4.9-3.23,7.49-4.56,1.19-.61,3.07-1.14,4.01-.6,.85,.48,1.22,2.5,1.14,3.79-.73,11.78-8.51,21.46-19.94,24.58-5.63,1.54-11.35,2.85-17.11,3.75-5.9,.92-11.89,1.21-19.27,1.91Z"/><path d="M375.63,334.24c2.25,.41,4.51,.82,6.76,1.23-2.48,3.5-7.55,5.25-10.99,3.8-3.19-1.35-4.87-4.94-3.82-9.54,2.55-11.2,9.28-19.32,19.56-24.16,2.25-1.06,6.37-1.04,8.03,.36,1.64,1.39,2.27,5.47,1.58,7.85-3.06,10.51-9.6,17.74-21.11,20.46Z"/><path d="M522.12,363.29c.04-5.02,4.19-8.93,9.31-8.77,4.92,.15,8.94,4.13,8.95,8.86,0,4.96-4.07,8.9-9.24,8.92-5.17,.02-9.07-3.88-9.03-9.01Zm16.82,.29c.11-4.08-3.32-7.63-7.5-7.76-4.2-.13-7.76,3.14-7.93,7.29-.18,4.36,3.25,7.93,7.64,7.95,4.19,.02,7.66-3.32,7.78-7.47Z"/><path class="cls-1" d="M538.95,363.58c-.12,4.16-3.59,7.5-7.78,7.47-4.39-.02-7.82-3.59-7.64-7.95,.17-4.15,3.73-7.42,7.93-7.29,4.18,.13,7.61,3.68,7.5,7.76Zm-9.43,.85l1.96-1.81,2.9,6.34c.32-.34,.64-.68,.96-1.02-.69-1.11-1.38-2.22-1.51-2.42,.5-2.49,1.49-5.23,1.02-5.52-1.91-1.15-4.28-1.53-6.75-2.28v10.52l.67,.09c.25-1.3,.5-2.6,.75-3.9Z"/><path d="M529.52,364.43c-.25,1.3-.5,2.6-.75,3.9l-.67-.09v-10.52c2.46,.75,4.83,1.13,6.75,2.28,.48,.29-.52,3.03-1.02,5.52,.12,.2,.82,1.31,1.51,2.42-.32,.34-.64,.68-.96,1.02l-2.9-6.34-1.96,1.81Zm.75-5.67c-.48,.54-.97,1.07-1.45,1.61,.8,.86,1.48,2.16,2.45,2.44,.69,.2,1.77-.98,2.68-1.55-1.22-.83-2.45-1.67-3.67-2.5Z"/><path class="cls-1" d="M530.27,358.76c1.22,.83,2.45,1.67,3.67,2.5-.91,.57-1.99,1.75-2.68,1.55-.97-.28-1.64-1.58-2.45-2.44,.48-.54,.97-1.07,1.45-1.61Z"/></svg>