<?xml version="1.0" encoding="utf-8"?>
<!-- Generator: Adobe Illustrator 21.0.0, SVG Export Plug-In . SVG Version: 6.00 Build 0)  -->
<svg version="1.1" id="Layer_1" xmlns="http://www.w3.org/2000/svg" xmlns:xlink="http://www.w3.org/1999/xlink" x="0px" y="0px"
	 viewBox="0 0 128 37" style="enable-background:new 0 0 128 37;" xml:space="preserve">
<style type="text/css">
	.st0{fill:#FF0093;}
</style>
<g>
	<g>
		<path class="st0" d="M118.6,9.1c0.4,0,0.7,0.1,1,0.2c0.3,0.1,0.6,0.3,0.9,0.6c0.2,0.2,0.4,0.5,0.6,0.8c0.1,0.3,0.2,0.7,0.2,1
			c0,0.4-0.1,0.7-0.2,1c-0.1,0.3-0.3,0.6-0.6,0.8c-0.3,0.3-0.5,0.4-0.9,0.6c-0.3,0.1-0.7,0.2-1,0.2c-0.4,0-0.7-0.1-1-0.2
			c-0.3-0.1-0.6-0.3-0.9-0.6c-0.3-0.3-0.4-0.5-0.6-0.9c-0.1-0.3-0.2-0.7-0.2-1c0-0.4,0.1-0.7,0.2-1c0.1-0.3,0.3-0.6,0.6-0.9
			c0.2-0.2,0.5-0.4,0.8-0.6C117.9,9.2,118.2,9.1,118.6,9.1z M118.6,9.5c-0.3,0-0.6,0.1-0.9,0.2c-0.3,0.1-0.5,0.3-0.7,0.5
			c-0.2,0.2-0.4,0.5-0.5,0.7c-0.1,0.3-0.2,0.6-0.2,0.9c0,0.3,0.1,0.6,0.2,0.9c0.1,0.3,0.3,0.5,0.5,0.7c0.2,0.2,0.5,0.4,0.7,0.5
			c0.3,0.1,0.6,0.2,0.8,0.2c0.3,0,0.6-0.1,0.9-0.2c0.3-0.1,0.5-0.3,0.7-0.5c0.2-0.2,0.4-0.4,0.5-0.7c0.1-0.3,0.2-0.6,0.2-0.8
			c0-0.3-0.1-0.6-0.2-0.9c-0.1-0.3-0.3-0.5-0.5-0.7c-0.2-0.2-0.5-0.4-0.7-0.5C119.2,9.6,118.9,9.5,118.6,9.5z M117.5,10.3h1.1
			c0.4,0,0.7,0.1,0.9,0.2c0.2,0.1,0.3,0.3,0.3,0.6c0,0.2-0.1,0.4-0.2,0.5c-0.1,0.1-0.3,0.2-0.5,0.3l0.7,1.3h-0.7l-0.6-1.2h-0.5v1.2
			h-0.6V10.3z M118.1,10.7v0.9h0.4c0.2,0,0.4,0,0.5-0.1c0.1-0.1,0.2-0.2,0.2-0.3c0-0.2-0.1-0.3-0.2-0.4c-0.1-0.1-0.3-0.1-0.5-0.1
			H118.1z"/>
	</g>
	<g>
		<path class="st0" d="M83.8,11.8c-5.6,0-8.4,4.4-8.4,8.2c0,3.8,2.7,8.2,8.4,8.2c5.6,0,8.4-4.4,8.4-8.2
			C92.2,16.2,89.4,11.8,83.8,11.8z M83.8,23.9c-2,0-3.7-1.6-3.7-3.9c0-2.3,1.7-3.9,3.7-3.9c2,0,3.7,1.6,3.7,3.9
			C87.5,22.3,85.8,23.9,83.8,23.9z"/>
		<path class="st0" d="M67.9,11.7c-2.4,0-4,1.3-4.9,2.8c-1.2-2.3-3.1-2.8-4.5-2.8c-2.9,0-3.9,1.5-4.3,2.2h-0.1V14h0v-0.9
			c0-0.5-0.4-0.9-0.9-0.9h-2.4c-0.5,0-0.9,0.4-0.9,0.9V14v2.2v7.5v1.5v1.5c0,0.5,0.4,0.9,0.9,0.9h2.8c0.5,0,0.9-0.4,0.9-0.9v-3.1
			c0-0.1,0-0.1,0-0.2v-4c0-0.9,0-3.4,2.6-3.4c2.3,0,2.3,2.4,2.3,3.2v4.3c0,0,0,0.1,0,0.1v3.1c0,0.5,0.4,0.9,0.9,0.9h2.8
			c0.5,0,0.9-0.4,0.9-0.9v-3.1c0,0,0-0.1,0-0.1v-4.4c0-0.9,0-3.2,2.6-3.2c2.4,0,2.4,2.2,2.4,3.4v4c0,0.1,0,0.1,0,0.2v3.1
			c0,0.5,0.4,0.9,0.9,0.9h2.8c0.5,0,0.9-0.4,0.9-0.9v-1.5h0v-6c0-3.4-0.2-4.5-1.7-6C70.8,12,69,11.7,67.9,11.7z"/>
		<path class="st0" d="M15.5,16.1c1,0,1.7,0.3,2.2,0.7c0.2,0.1,0.3,0.3,0.5,0.4l0.5,0.6c0.2,0.3,0.5,0.5,0.8,0.5h2.8
			c0.5,0,0.9-0.4,0.9-0.9c0-0.8-0.9-2.1-0.9-2.1c-1.5-2.1-4-3.5-6.9-3.5c-4.6,0-8.2,3.7-8.2,8.2c0,4.6,3.6,8.3,8.3,8.3
			c2.9,0,5.3-1.4,6.7-3.4l0,0c0,0,0.2-0.3,0.5-0.7c0.1-0.2,0.2-0.4,0.3-0.6l0,0c0.1-0.2,0.2-0.5,0.2-0.7c0-0.5-0.4-0.9-0.9-0.9h-2.8
			c-0.3,0-0.6,0.2-0.8,0.4l-0.2,0.2c0,0,0,0,0,0c-0.6,0.7-1.4,1.4-2.9,1.4c-2.2,0-3.7-1.7-3.7-3.9C11.8,17.8,13.3,16,15.5,16.1z"/>
		<path class="st0" d="M33.7,11.7c-1.6,0-3.2,0.6-4,2h-0.1v-2.4c0-0.1,0-0.1,0-0.2V8c0-0.5-0.4-0.9-0.9-0.9h-2.8
			C25.4,7.1,25,7.5,25,8v1v2.1v12.6v2.1v0.9c0,0.5,0.4,0.9,0.9,0.9h2.8c0.5,0,0.9-0.4,0.9-0.9v-3.1c0-0.1,0-0.1,0-0.2v-4.4
			c0-0.8,0-3.1,2.6-3.1c2.5,0,2.5,2.5,2.5,3.2v4.2c0,0.1,0,0.1,0,0.2v3.1c0,0.5,0.4,0.9,0.9,0.9h2.8c0.5,0,0.9-0.4,0.9-0.9v-0.9
			v-2.1v-4.6c0-2.8-0.1-4.1-1.5-5.7C36.9,12.3,35.2,11.7,33.7,11.7z"/>
		<g>
			<circle class="st0" cx="44.4" cy="8.4" r="2.4"/>
			<path class="st0" d="M45.8,12.3H43c-0.5,0-0.9,0.4-0.9,0.9v3.1c0,0,0,0.1,0,0.1v7.3c0,0,0,0.1,0,0.1v3.1c0,0.5,0.4,0.9,0.9,0.9
				h2.8c0.5,0,0.9-0.4,0.9-0.9v-3.1c0,0,0-0.1,0-0.1v-7.3c0,0,0-0.1,0-0.1v-3.1C46.7,12.7,46.3,12.3,45.8,12.3z"/>
		</g>
		<path class="st0" d="M98.7,11.1V8c0-0.5-0.4-0.9-0.9-0.9H95C94.5,7.1,94,7.5,94,8v1v2.1v12.6v2.1v0.9c0,0.5,0.4,0.9,0.9,0.9h2.8
			c0.5,0,0.9-0.4,0.9-0.9v-3.1c0-0.1,0-0.1,0-0.2V11.3C98.7,11.2,98.7,11.2,98.7,11.1z"/>
		<path class="st0" d="M108.4,12.2c-3,0-4.6,0.8-6.1,2c-0.3,0.3-0.5,0.8,0,1.3c0.7,0.7,1.5,1.5,1.5,1.5s0.5,0.5,1.1,0.2c0,0,0,0,0,0
			c0.8-0.6,1.7-1,3-1c1.4,0,2.2,0.6,2.5,1.9c0,0.2,0.1,0.6-0.4,0.6h-3.1c-3.8,0-6.2,1.3-6.2,4.6c0,3.5,2.6,4.8,5.4,4.8
			c2,0,3.3-0.6,4.4-2.3v1c0,0.5,0.4,0.9,0.9,0.9h2.9c0.5,0,0.9-0.4,0.9-0.9v-0.5v-2.6v-4.6C115.2,14.3,112.3,12.2,108.4,12.2z
			 M110.4,22.2c0,1.3-1,2.1-3,2.1c-1.4,0-2.1-0.5-2.1-1.4c0-0.9,0.5-1.4,1.8-1.4h3.3V22.2z"/>
	</g>
</g>
</svg>
