<svg xmlns="http://www.w3.org/2000/svg" width="338.243" height="83.092" viewBox="0 0 338.243 83.092">
  <path id="logo" d="M380.862,110.188c3.066-1.681,4.7-4.94,4.69-8.811.007-4.565-1.775-7.6-4.511-9.4s-6.35-2.411-10.074-2.414H358.442v44.442h13.691c7.418-.01,14.494-4.037,14.512-13.286.011-4.886-2.1-8.749-5.783-10.535M364.785,95.647h6.25c4.449.057,8.163.868,8.177,5.73-.011,4.665-3.756,5.8-8.177,5.859h-6.25Zm6.636,32.286H364.79V113.308l6.631,0c4.6.041,8.949,2.127,8.953,7.411,0,5.33-4.4,7.166-8.953,7.21m-70.587-18.691c-4.912-1.981-9.4-3.259-9.353-7.67.048-3.859,2.242-6.525,7.21-6.57a12.928,12.928,0,0,1,7.659,2.226l.384.291,3.386-4.971-.266-.268c-.729-.707-4.822-3.351-11.423-3.366-7.159.012-13.282,4.849-13.3,12.848-.016,7.361,5.12,9.954,9.937,11.854,4.9,1.955,9.382,3.34,9.35,8.139-.029,5.131-3.576,6.9-8.047,6.954-2.712.014-6.831-1.234-8.541-2.723l-.375-.321-3.657,4.873.353.287a21.952,21.952,0,0,0,12.024,3.965c6.612-.011,14.57-3.111,14.585-13.1.023-7.7-5.1-10.511-9.931-12.448M336.9,89.547h-6.546l-.108.3-15.828,44.159h7.326l3.38-10.571h17l3.381,10.571h7.336Zm-9.86,27.815,6.381-19.127.2-.886.2.845,6.386,19.168Zm84.81-28.448c-5.24,0-9.57,1.41-12.6,4.2s-4.7,6.937-4.695,12.255v13.16c0,5.28,1.667,9.381,4.7,12.133s7.358,4.124,12.594,4.124c5.3,0,9.644-1.375,12.672-4.124s4.691-6.853,4.687-12.133v-13.16c0-5.318-1.652-9.462-4.679-12.255s-7.383-4.2-12.68-4.2m0,39.795c-6.416-.05-10.909-3.312-10.952-10.756V105.824c.039-7.251,4.554-10.777,10.952-10.822,6.534.045,10.976,3.568,11.012,10.822l0,12.129c-.047,7.448-4.471,10.7-11.016,10.756m71.279,5.3h6.337V89.547h-6.337Zm31.815-24.767c-4.917-1.981-9.4-3.259-9.353-7.67.047-3.859,2.238-6.525,7.21-6.57a12.9,12.9,0,0,1,7.65,2.226l.39.291,3.391-4.971-.266-.268c-.729-.707-4.825-3.351-11.417-3.366-7.17.012-13.29,4.849-13.3,12.848-.018,7.361,5.117,9.954,9.938,11.854,4.9,1.955,9.382,3.34,9.349,8.139-.032,5.131-3.569,6.9-8.054,6.954-2.706.014-6.826-1.234-8.534-2.723l-.375-.318-3.658,4.87.353.287a21.947,21.947,0,0,0,12.023,3.965c6.611-.011,14.571-3.111,14.589-13.1.022-7.7-5.1-10.511-9.931-12.448m-48.1,11.481h0v1.919l-.812-1.493-20.975-31.6h-6.33V134h6.337V100.23l.812,1.492,21.386,32.284H473.2V89.547h-6.348Zm-235.5-38.186-35.893,31.588h35.4l-5.842,27.044,35.894-31.584H225.5Zm-2.7-12.221v-.01l-.464.006h-.456v0a41.542,41.542,0,1,0,.92,0m24.407,66.41a35.17,35.17,0,1,1,10.3-24.872,35.019,35.019,0,0,1-10.3,24.872" transform="translate(-186.636 -70.306)" fill="#1c5397"/>
</svg>
